<svg width="77" height="64" viewBox="0 0 77 64" fill="none" xmlns="http://www.w3.org/2000/svg">
<g clip-path="url(#clip0_807_571)">
<path d="M60.8911 9.77257C60.8911 9.28541 60.4975 8.89062 60.0119 8.89062H57.3548C56.8691 8.89062 56.4756 9.28541 56.4756 9.77257V24.8833H60.8911V9.77257Z" fill="#198E7B"/>
<path d="M20.8159 9.68177C20.8159 9.19216 20.4353 8.79492 19.966 8.79492H17.3977C16.9284 8.79492 16.5479 9.19216 16.5479 9.68177V24.8832H20.8159V9.68177Z" fill="#198E7B"/>
<path d="M16.4741 54.2279C16.4741 54.715 16.8677 55.1098 17.3533 55.1098H20.0104C20.496 55.1098 20.8896 54.715 20.8896 54.2279V39.1172H16.4741V54.2279Z" fill="#198E7B"/>
<path d="M56.5493 54.3186C56.5493 54.8082 56.9298 55.2055 57.3992 55.2055H59.9675C60.4368 55.2055 60.8173 54.8082 60.8173 54.3186V39.1172H56.5493V54.3186Z" fill="#198E7B"/>
<path d="M40.6567 1.8546C40.6567 1.36744 40.2632 0.972656 39.7775 0.972656H37.2239C36.7383 0.972656 36.3447 1.36744 36.3447 1.8546V24.8823H40.6567V1.8546Z" fill="#198E7B"/>
<path d="M36.3447 62.1449C36.3447 62.6321 36.7383 63.0269 37.2239 63.0269H39.7775C40.2632 63.0269 40.6567 62.6321 40.6567 62.1449V39.1172H36.3447V62.1449Z" fill="#198E7B"/>
<path d="M4.32428 35.5136C3.59013 35.5136 2.9562 35.3468 2.44042 35.0182C1.92383 34.6897 1.53028 34.2507 1.26954 33.7137C1.00716 33.1734 0.873535 32.5915 0.873535 31.9825C0.873535 31.3736 1.00635 30.7941 1.26872 30.2571C1.52946 29.7233 1.92383 29.2844 2.44042 28.9525C2.9562 28.6207 3.59013 28.4531 4.32428 28.4531C4.78709 28.4531 5.21324 28.534 5.59213 28.6934L5.45116 29.9375C5.30857 29.8713 5.16598 29.8157 5.02583 29.7707C4.83679 29.7111 4.6005 29.6808 4.32428 29.6808C3.86879 29.6808 3.47035 29.7912 3.14116 30.0086C2.81279 30.226 2.56102 30.5129 2.39398 30.8635C2.22776 31.2109 2.14302 31.5845 2.14302 31.9727C2.14302 32.361 2.22776 32.7353 2.39398 33.0827C2.56183 33.4334 2.81279 33.7203 3.14116 33.9369C3.47035 34.1543 3.86879 34.2646 4.32428 34.2646C4.60702 34.2646 4.87102 34.2311 5.11057 34.1657C5.28902 34.1167 5.44954 34.0603 5.5905 33.9973L5.74776 35.2496C5.55709 35.3207 5.33872 35.3811 5.09754 35.4302C4.82457 35.4858 4.56465 35.5136 4.32428 35.5136Z" fill="#F4F4F2"/>
<path d="M10.6604 35.5037L10.3826 34.7501H7.96828L7.70021 35.5037H6.37939L9.17502 28.4629H9.17747L11.9723 35.5037H10.6604ZM8.39036 33.6524H9.95073L9.18236 31.4021L8.39036 33.6524Z" fill="#F4F4F2"/>
<path d="M16.126 35.5234C15.4025 35.5234 14.771 35.355 14.2503 35.0215C13.7289 34.6881 13.3296 34.2491 13.0648 33.7162C12.7983 33.1808 12.6631 32.5997 12.6631 31.9899C12.6631 31.3802 12.7951 30.8219 13.055 30.2931C13.3133 29.7667 13.7077 29.3294 14.2267 28.9934C14.7458 28.6567 15.3862 28.4728 16.1301 28.4466C16.1961 28.4442 16.2597 28.4434 16.3224 28.4434C16.584 28.4434 16.8146 28.4654 17.0085 28.5096C17.2252 28.5594 17.442 28.6158 17.6538 28.6788L17.5129 29.9073C17.134 29.7634 16.7119 29.6898 16.2548 29.6898C15.7659 29.6898 15.3422 29.8002 14.9959 30.0176C14.6496 30.235 14.3856 30.5236 14.2104 30.875C14.0369 31.224 13.948 31.6025 13.948 31.9997C13.948 32.397 14.0328 32.7648 14.1998 33.113C14.3677 33.4645 14.6203 33.753 14.9495 33.9704C15.2795 34.1886 15.6755 34.2998 16.1269 34.2998C16.2246 34.2998 16.3583 34.2859 16.5359 34.2581L16.6247 34.2442V32.097H17.8396V35.0845C17.3157 35.3755 16.7396 35.5234 16.126 35.5234Z" fill="#F4F4F2"/>
<path d="M19.4102 35.5037V28.4629H22.7501V29.6996H20.6185V31.3654H22.4828V32.602H20.6185V34.2678H22.869V35.5037H19.4102Z" fill="#F4F4F2"/>
<path d="M29.5218 35.5333C29.0964 35.5333 28.6907 35.4376 28.3134 35.2496C27.9394 35.0633 27.6339 34.7796 27.4041 34.4061C27.1743 34.0334 27.0586 33.5781 27.0586 33.0534V28.4336H28.2661V33.0436C28.2661 33.4334 28.3933 33.7424 28.645 33.9623C28.8911 34.1781 29.1861 34.2876 29.521 34.2876C29.8559 34.2876 30.1508 34.1781 30.3969 33.9623C30.6487 33.7424 30.7758 33.4334 30.7758 33.0436V28.4336H31.9736V33.0534C31.9736 33.5781 31.857 34.0334 31.6281 34.4061C31.3983 34.7796 31.0944 35.0633 30.7236 35.2496C30.3504 35.4376 29.9455 35.5333 29.521 35.5333H29.5218Z" fill="#F4F4F2"/>
<path d="M38.3651 35.5758L34.6976 31.3884V35.5758H33.5186V28.3887H33.7345L37.393 32.7436V28.432H38.5818V35.5758H38.3651Z" fill="#F4F4F2"/>
<path d="M40.2549 35.5037V28.4629H42.2626C42.9927 28.4629 43.6225 28.6296 44.1358 28.959C44.6492 29.2884 45.0419 29.7265 45.3027 30.2603C45.565 30.7981 45.6978 31.376 45.6978 31.9784C45.6978 32.5808 45.565 33.1693 45.3027 33.7063C45.0411 34.2409 44.6492 34.679 44.1358 35.0076C43.6233 35.337 42.9927 35.5037 42.2626 35.5037H40.2549ZM41.4632 34.2678H42.2626C42.7172 34.2678 43.1157 34.1583 43.4449 33.9417C43.7741 33.7251 44.025 33.439 44.1913 33.0917C44.3567 32.7467 44.4398 32.3724 44.4398 31.9792C44.4398 31.5861 44.3558 31.2215 44.1913 30.8766C44.025 30.5292 43.7733 30.2431 43.4449 30.0265C43.1149 29.8099 42.7172 29.6996 42.2626 29.6996H41.4632V34.2678Z" fill="#F4F4F2"/>
<path d="M46.9932 35.5037V28.4629H50.3331V29.6996H48.2007V31.3654H50.0658V32.602H48.2007V34.2678H50.4521V35.5037H46.9932Z" fill="#F4F4F2"/>
<path d="M51.8159 35.5037V28.4629H55.1469V29.6996H53.0243V31.3654H54.8291V32.602H53.0243V35.5037H51.8159Z" fill="#F4F4F2"/>
<path d="M57.5692 28.4629H56.3608V35.5037H57.5692V28.4629Z" fill="#F4F4F2"/>
<path d="M65.8618 35.4901V28.4746H69.1903V29.7056H67.0653V31.3665H68.9231V32.5982H67.0653V34.2591H69.3085V35.4901H65.8618Z" fill="#F4F4F2"/>
<path d="M70.6851 35.5037V28.4629H72.6928C73.4228 28.4629 74.0527 28.6296 74.566 28.959C75.0794 29.2884 75.4721 29.7265 75.7328 30.2603C75.9952 30.7981 76.1288 31.376 76.1288 31.9784C76.1288 32.5808 75.996 33.1693 75.7328 33.7063C75.4713 34.2409 75.0794 34.679 74.566 35.0076C74.0535 35.337 73.4228 35.5037 72.6928 35.5037H70.6851ZM71.8934 34.2678H72.6928C73.1474 34.2678 73.5459 34.1583 73.8751 33.9417C74.2042 33.7251 74.4552 33.439 74.6214 33.0917C74.7868 32.7467 74.8699 32.3724 74.8699 31.9792C74.8699 31.5861 74.786 31.2215 74.6214 30.8766C74.4552 30.5292 74.2034 30.2431 73.8751 30.0265C73.5451 29.8099 73.1474 29.6996 72.6928 29.6996H71.8934V34.2678Z" fill="#F4F4F2"/>
<path d="M64.0298 35.5406L60.3623 31.3533V35.5406H59.1841V28.3535H59.4L63.0585 32.7093V28.3977H64.2473V35.5406H64.0298Z" fill="#F4F4F2"/>
</g>
<defs>
<clipPath id="clip0_807_571">
<rect width="77" height="64" fill="white"/>
</clipPath>
</defs>
</svg>
